<svg width="580" height="400" xmlns="http://www.w3.org/2000/svg">
 <!-- Created with Method Draw - http://github.com/duopixel/Method-Draw/ -->
 <g>
  <path d="m43.5,342.109375c0,-1 0.371346,-2.746735 3,-7c9.404564,-15.216919 16,-33 25,-53c9,-20 16.325203,-42.552567 24,-63c6.602295,-17.590042 13.591354,-30.182281 20,-44c5.644928,-12.171066 9.432678,-25.054138 10,-28c1.018372,-5.287994 2.371346,-7.74675 5,-12c2.351135,-3.80423 4.847229,-9.041321 6,-13c0.88414,-3.036163 0.469269,-5.304482 2,-9c2.16478,-5.22625 5.493454,-6.878555 6,-10c0.160187,-0.987091 0.877655,-2.066002 2,-4c1.809723,-3.118477 2.144287,-4.065857 3,-2c1.210144,2.921562 0.503784,7.017609 1,14c1.503784,21.159836 5.031113,28.991638 12,55c4.017944,14.995209 8.111206,30.97261 12,47c4.11795,16.971817 7.672287,35.08551 12,51c4.649857,17.099091 10.233185,29.932983 13,40c1.092682,3.975677 0.587601,8.017029 1,13c0.501709,6.062042 1.130646,11.128723 2,14c1.04483,3.450836 3.458801,5.693451 4,7c0.38269,0.923889 0,0 0,-1c0,-2 0.112106,-5.978882 1,-11c2.290329,-12.951996 6,-30 11,-50c6,-24 10.547546,-40.906967 13,-57c2.578751,-16.921875 4,-31 4,-45c0,-14 0,-25 0,-35c0,-11 2.993988,-21.835503 4,-31c0.545578,-4.970146 0,-7 0,-10c0,-3 -1.162277,-7.837723 2,-11c1.581146,-1.581139 3,-4 3,-6c0,-2 0.770248,-4.026749 1,-5c1.027481,-4.352501 2.540497,-8.053505 3,-10c0.513748,-2.17625 0.839813,-4.012913 1,-5c0.506546,-3.121445 1,-6 3,-10c1,-2 1,-3 1,-4c0,-1 0.149353,-1.47427 1,-2c1.9021,-1.175571 4.517029,-3.531647 9,-9c2.285889,-2.788326 2,-5 2,-4c0,1 0,3 1,6c1,3 1,7 1,13c0,8 1.709686,19.047997 4,32c3.551575,20.08448 6,32 8,43c2,11 4.492401,21.921768 6,33c1.48941,10.944489 2.64325,19.822693 4,26c1.942596,8.844559 2,16 2,22c0,6 0,14 0,20c0,6 0,12 0,18c0,6 -0.640717,11.051636 0,15c0.506531,3.121429 1,7 1,10c0,4 0,9 0,12c0,3 0,7 0,11c0,1 -0.160187,3.012909 0,4c0.506531,3.121429 1,6 1,8c0,1 0.513,3.593994 2,6c1.662506,2.690002 1.789856,4.07843 3,7c0.855713,2.065857 2.2565,3.796997 3,5c1.662506,2.690002 2.851959,6.228363 4,9c0.541199,1.306549 3.186005,2.692535 5,4c1.147278,0.826904 3.934143,1.144287 6,2c2.92157,1.210144 5,1 9,1c2,0 5.779785,0.809418 11,-5c2.409882,-2.681885 3.585999,-10.875916 5,-19c1.723267,-9.901031 1,-21 1,-33c0,-13 0,-28 0,-44c0,-18 0,-36 0,-55c0,-18 0,-37 0,-52c0,-12 0,-23 0,-31c0,-4 1,-7 1,-10c0,-1 0,-4 0,-6c0,-2 1,-4 1,-7c0,-1 1.486267,-3.823746 2,-6c0.919006,-3.892998 0.080994,-11.107002 1,-15c0.513733,-2.17625 1.420441,-4.085815 2,-6c1.04483,-3.450844 1.821075,-6.298691 5,-8c0.881683,-0.471859 5.04834,-0.693504 10,0c7.209747,1.009762 15.558014,3.077644 21,7c6.883606,4.96143 12,15 18,25c6,10 13.85434,19.575912 18,29c3.820007,8.683754 6.538727,17.896996 8,27c1.592896,9.922836 3.366455,20.93364 5,31c2.582855,15.916306 2.591095,27.044861 4,38c0.775879,6.033081 2,18 2,28c0,8 0,16 0,25c0,8 0,16 0,22c0,6 0,12 0,16c0,6 0,10 0,14c0,4 0.692535,7.186005 2,9c1.653809,2.294525 2.337494,4.309998 4,7c0.7435,1.203003 3.22937,2.33197 7,4c3.297333,1.458649 7,2 11,2c3,0 7.563934,0.632263 11,-3c4.955566,-5.238525 7.442963,-9.638702 9,-12c5.928955,-8.991516 5.911835,-18.015015 8,-30c1.919067,-11.014404 3,-24 5,-38c1,-7 4.075043,-23.987732 6,-36c2.081207,-12.987244 1.877533,-20.016846 4,-35c2.836517,-20.023834 5.499695,-33.973251 6,-48c0.178223,-4.996826 2,-19 2,-28c0,-6 0.68927,-9.080254 0,-12c-1.027466,-4.352501 -4,-6 -7,-10c-3,-4 -6.025818,-5.679634 -8,-6c-3.121429,-0.506538 -5.878571,-1.493462 -9,-2c-0.987091,-0.160179 -2,0 -4,0c-2,0 -5.014587,0.704384 -8,1c-5.074219,0.502449 -11,3 -14,3c-3,0 -8.878571,1.493462 -12,2c-4.935425,0.800911 -12.922699,0.43544 -23,2c-8.948181,1.389259 -17.982849,3.087784 -28,5c-10.982025,2.096405 -24.951599,4.345039 -38,6c-9.970001,1.264519 -18.790253,3.990242 -26,5c-2.971008,0.416107 -8.88382,0.541389 -17,2c-8.912598,1.601738 -18.96402,2.209106 -30,4c-13.959534,2.26532 -24.948364,4.278229 -35,6c-6.969559,1.193832 -9.963287,3.160416 -14,4c-5.955322,1.238632 -21.087402,4.398262 -30,6c-4.05809,0.729301 -16.946716,4.498741 -24,5c-1.994965,0.141777 -12.985596,3.080933 -24,5c-11.98497,2.088173 -25.443756,2.188728 -33,5c-3.379257,1.257233 -5.593994,3.513 -8,5c-2.689995,1.662506 -7.918304,4.112137 -12,7c-2.943352,2.082474 -6.080315,5.376419 -10,7c-2.771637,1.148056 -8.078583,3.938126 -12,9c-3.062111,3.952652 -6.568687,7.782745 -9,15c-1.316292,3.907349 -1.295616,8.014603 -1,11c0.502449,5.074203 4.563423,9.342346 7,12c4.327133,4.719742 10.746742,8.371338 15,11c3.80423,2.351135 9.940422,3.325211 20,5c14.927277,2.485199 31.118454,1.814453 47,4c14.184143,1.95195 28,6 42,8c14,2 29.992859,4.057983 46,6c16.992645,2.061584 30.971191,5.499634 44,6c10.991882,0.422134 26,0 41,0c13,0 27,0 36,0c6,0 12,0 19,0c10,0 20.978455,-1.139771 40,-4c6.992462,-1.051437 17.272369,-4.442017 30,-11c7.16684,-3.692749 8.410919,-6.692383 13,-10c3.627991,-2.614899 8.613831,-4.296997 11,-7c1.479828,-1.676331 0.779785,-5.794876 -2,-9c-3.276001,-3.777267 -9.606415,-9.549011 -15,-13c-3.767029,-2.410278 -9.22937,-1.331985 -13,-3c-3.297333,-1.458633 -7,-2 -14,-2c-10,0 -25.042755,-0.205109 -42,1c-14.106567,1.002518 -27.992859,4.057983 -44,6c-16.992645,2.061584 -32.945801,5.46019 -48,7c-13.96283,1.428177 -26.006653,0.600662 -38,1c-15.024963,0.500275 -31.032639,0.503601 -50,2c-19.045792,1.502579 -37.954163,5.467728 -56,7c-16.968323,1.440781 -31.082733,-0.67514 -48,1c-10.148407,1.004898 -18,3 -29,4c-11,1 -21.059937,0.022537 -29,1c-4.092213,0.503769 -8.171631,1.840866 -12,3c-3.450844,1.04483 -7.186008,1.692551 -9,3c-1.14727,0.826904 -3,2 -5,4c-1,1 -2,2 -2,3c0,1 0.496227,1.907791 1,6c0.244366,1.985016 2.981625,4.712006 4,10c0.756432,3.927826 2.385098,7.372009 5,11c2.480717,3.441803 7,6 10,8c3,2 7.229362,5.33197 11,7c3.297325,1.458649 7.961349,3.217712 13,4c8.948181,1.389252 20.014893,1.834991 32,3c9.012909,0.876099 20.838455,3.691498 28,5c11.84549,2.164337 27,1 43,1c10,0 18.958466,0.499237 28,1c14.977051,0.829498 22,0 35,0c24,0 40,0 56,0c12,0 21.98056,1.130737 35,3c14.979156,2.150635 30.01178,3.385986 46,4c13.028809,0.500366 28.998383,2.027679 46,3c17.998352,1.029327 37,1 56,1c17,0 32,0 44,0c7,0 11,0 13,0c1,0 1.38269,1.076111 1,2c-0.541199,1.306549 -0.31073,2.080261 -1,5c-0.513733,2.176239 -0.968567,4.412079 -3,8c-0.696777,1.230652 -2.256531,2.796997 -3,4c-1.662537,2.690002 -0.789856,4.07843 -2,7c-0.855713,2.065857 -4.318115,4.590118 -7,7c-5.809387,5.220215 -9.113647,8.892456 -11,11c-4.270386,4.771149 -7.0289,5.839813 -13,7c-9.050293,1.758484 -12.797485,3.609314 -18,5c-6.831207,1.82605 -15.907562,3.536285 -26,5c-10.931,1.585358 -17,2 -22,2c-11,0 -21,0 -35,0c-14,0 -27,0 -39,0c-13,0 -26,0 -41,0c-16,0 -36,0 -49,0c-6,0 -17,0 -32,0c-12,0 -23,0 -34,0c-8,0 -15,0 -19,0c-6,0 -15,0 -26,0c-8,0 -11,0 -17,0c-3,0 -8,0 -11,0c-7,0 -11,0 -15,0c-3,0 -5.878555,-0.493469 -9,-1c-3.948349,-0.640717 -8,0 -9,0c-2,0 -6,0 -8,0c-4,0 -5,0 -6,0c-1,0 -3,-2 -11,-4l-18,-8" id="svg_2" stroke-width="1.5" stroke="#000" fill="none"/>
 </g>
</svg>