<svg data-v-decfdd8a="" version="1.0" xmlns="http://www.w3.org/2000/svg"
    xmlns:xlink="http://www.w3.org/1999/xlink" width="100%" height="100%"
    viewBox="0 0 340.000000 250.000000" preserveAspectRatio="xMidYMid meet"
    color-interpolation-filters="sRGB" style="margin: auto;">
     
    <g data-v-decfdd8a="" fill="#cc2229" class="icon-text-wrapper icon-svg-group iconsvg"
        transform="translate(49.1199951171875,98.97640609741211)">
        <g class="iconsvg-imagesvg" transform="translate(0,0)">
            <g>
              
                <svg filter="url(#colors49785681)" x="0" y="0" width="60"
                    height="52.047189451769604" filtersec="colorsf7464237033"
                    class="image-svg-svg primary" style="overflow: visible;">
                    <svg xmlns="http://www.w3.org/2000/svg" viewBox="1.5 2 96.8 84.5">
                        <path
                            d="M49.9 4l23.2 40.2 23.2 40.2H3.5l23.2-40.2L49.9 4zM13.3 84.5v-7.9H8m15.7 7.9v-17H13.3m78.6 9.1h-5.2v7.9m-.1-17H76.1v17m5.3-26H65.7v26m-31.5 0v-26H18.5m26.2 26V49.4h-21m52.4 0h-21v35.1M44.7 13.1h10.5m-10.5 0l-5.2 9.1h21m-26.3 9h31.4l-5.2-9.1m-26.2 9.1L29 40.3h41.9"
                            fill="none" stroke="#333" stroke-width="4" stroke-miterlimit="10"></path>
                    </svg>
                </svg>
                <defs>
                    <filter id="colors49785681">
                        <feColorMatrix type="matrix"
                            values="0 0 0 0 0.3125  0 0 0 0 0.3671875  0 0 0 0 0.5234375  0 0 0 1 0"
                            class="icon-fecolormatrix"></feColorMatrix>
                    </filter>
                    <filter id="colorsf7464237033">
                        <feColorMatrix type="matrix"
                            values="0 0 0 0 0.99609375  0 0 0 0 0.99609375  0 0 0 0 0.99609375  0 0 0 1 0"
                            class="icon-fecolormatrix"></feColorMatrix>
                    </filter>
                    <filter id="colorsb2118875423">
                        <feColorMatrix type="matrix"
                            values="0 0 0 0 0  0 0 0 0 0  0 0 0 0 0  0 0 0 1 0"
                            class="icon-fecolormatrix"></feColorMatrix>
                    </filter>
                </defs>
            </g>
        </g>
        <g transform="translate(67,7.578594207763672)">
            <g data-gra="path-name" fill-rule="" class="tp-name iconsvg-namesvg">
                <g transform="scale(1)">
                    <g>
                        <path
                            d="M33.19-25.74Q37.31-25.74 39.49-23.3 41.67-20.86 41.67-15.42L41.67-15.42 41.67-2.77Q41.67-1.28 40.77-0.49 39.87 0.31 38.44 0.31L38.44 0.31Q37.05 0.31 36.15-0.49 35.25-1.28 35.25-2.77L35.25-2.77 35.25-15.42Q35.25-18.24 34.25-19.45 33.25-20.66 31.19-20.66L31.19-20.66Q28.67-20.66 27.18-18.94 25.69-17.21 25.69-14.23L25.69-14.23 25.69-2.77Q25.69-1.28 24.79-0.49 23.89 0.31 22.51 0.31L22.51 0.31Q21.12 0.31 20.19-0.49 19.27-1.28 19.27-2.77L19.27-2.77 19.27-15.42Q19.27-18.24 18.27-19.45 17.27-20.66 15.21-20.66L15.21-20.66Q12.69-20.66 11.23-18.94 9.76-17.21 9.76-14.23L9.76-14.23 9.76-2.77Q9.76-1.28 8.84-0.49 7.91 0.31 6.53 0.31L6.53 0.31Q5.14 0.31 4.24-0.49 3.34-1.28 3.34-2.77L3.34-2.77 3.34-22.66Q3.34-24.1 4.26-24.87 5.19-25.64 6.58-25.64L6.58-25.64Q7.91-25.64 8.76-24.9 9.61-24.15 9.61-22.76L9.61-22.76 9.61-21.53Q10.79-23.59 12.77-24.66 14.75-25.74 17.32-25.74L17.32-25.74Q22.97-25.74 24.87-21.02L24.87-21.02Q26-23.17 28.21-24.46 30.42-25.74 33.19-25.74L33.19-25.74ZM59.66 0.41Q55.8 0.41 52.9-1.18 50-2.77 48.4-5.76 46.81-8.74 46.81-12.69L46.81-12.69Q46.81-16.65 48.4-19.6 50-22.56 52.9-24.15 55.8-25.74 59.66-25.74L59.66-25.74Q63.51-25.74 66.41-24.15 69.32-22.56 70.88-19.6 72.45-16.65 72.45-12.69L72.45-12.69Q72.45-8.74 70.88-5.76 69.32-2.77 66.41-1.18 63.51 0.41 59.66 0.41L59.66 0.41ZM59.61-4.57Q62.74-4.57 64.38-6.63 66.03-8.68 66.03-12.69L66.03-12.69Q66.03-16.65 64.38-18.73 62.74-20.81 59.66-20.81L59.66-20.81Q56.57-20.81 54.9-18.73 53.23-16.65 53.23-12.69L53.23-12.69Q53.23-8.68 54.88-6.63 56.52-4.57 59.61-4.57L59.61-4.57ZM86.84 0.41Q81.24 0.41 77.8-1.8L77.8-1.8Q76.15-2.77 76.15-4.57L76.15-4.57Q76.15-5.6 76.72-6.24 77.28-6.89 78.1-6.89L78.1-6.89Q78.98-6.89 80.52-6.06L80.52-6.06Q82.16-5.29 83.53-4.88 84.89-4.47 86.99-4.47L86.99-4.47Q89.15-4.47 90.36-5.19 91.57-5.91 91.57-7.19L91.57-7.19Q91.57-8.07 91.08-8.58 90.59-9.1 89.33-9.53 88.07-9.97 85.5-10.53L85.5-10.53Q80.93-11.46 78.95-13.15 76.97-14.85 76.97-17.83L76.97-17.83Q76.97-20.09 78.31-21.92 79.65-23.74 81.98-24.74 84.32-25.74 87.3-25.74L87.3-25.74Q89.46-25.74 91.46-25.2 93.47-24.66 95.06-23.64L95.06-23.64Q96.71-22.61 96.71-20.91L96.71-20.91Q96.71-19.89 96.14-19.19 95.58-18.5 94.75-18.5L94.75-18.5Q94.19-18.5 93.65-18.73 93.11-18.96 92.29-19.42L92.29-19.42Q90.8-20.19 89.72-20.58 88.64-20.96 87.05-20.96L87.05-20.96Q85.14-20.96 84.04-20.19 82.93-19.42 82.93-18.09L82.93-18.09Q82.93-16.8 84.07-16.13 85.2-15.47 88.43-14.8L88.43-14.8Q91.88-14.08 93.83-13.15 95.78-12.23 96.63-10.84 97.48-9.45 97.48-7.3L97.48-7.3Q97.48-3.8 94.57-1.7 91.67 0.41 86.84 0.41L86.84 0.41ZM122.55-6.89Q123.43-6.89 123.97-6.22 124.5-5.55 124.5-4.42L124.5-4.42Q124.5-2.83 122.6-1.75L122.6-1.75Q120.86-0.77 118.65-0.18 116.44 0.41 114.43 0.41L114.43 0.41Q108.37 0.41 104.82-3.08 101.28-6.58 101.28-12.64L101.28-12.64Q101.28-16.49 102.82-19.47 104.36-22.46 107.16-24.1 109.96-25.74 113.51-25.74L113.51-25.74Q116.9-25.74 119.42-24.25 121.94-22.76 123.32-20.04 124.71-17.32 124.71-13.62L124.71-13.62Q124.71-11.41 122.76-11.41L122.76-11.41 107.6-11.41Q107.91-7.86 109.6-6.19 111.3-4.52 114.54-4.52L114.54-4.52Q116.18-4.52 117.44-4.93 118.7-5.34 120.29-6.06L120.29-6.06Q121.83-6.89 122.55-6.89L122.55-6.89ZM113.66-21.22Q111.04-21.22 109.47-19.58 107.91-17.93 107.6-14.85L107.6-14.85 119.21-14.85Q119.11-17.98 117.67-19.6 116.23-21.22 113.66-21.22L113.66-21.22ZM133.14 0.31Q131.75 0.31 130.85-0.49 129.95-1.28 129.95-2.77L129.95-2.77 129.95-33.45Q129.95-34.94 130.85-35.71 131.75-36.48 133.14-36.48L133.14-36.48Q134.52-36.48 135.45-35.71 136.37-34.94 136.37-33.45L136.37-33.45 136.37-2.77Q136.37-1.28 135.45-0.49 134.52 0.31 133.14 0.31L133.14 0.31ZM146.19 0.31Q144.8 0.31 143.9-0.49 143-1.28 143-2.77L143-2.77 143-33.45Q143-34.94 143.9-35.71 144.8-36.48 146.19-36.48L146.19-36.48Q147.58-36.48 148.5-35.71 149.43-34.94 149.43-33.45L149.43-33.45 149.43-2.77Q149.43-1.28 148.5-0.49 147.58 0.31 146.19 0.31L146.19 0.31ZM175.94-6.89Q176.81-6.89 177.35-6.22 177.89-5.55 177.89-4.42L177.89-4.42Q177.89-2.83 175.99-1.75L175.99-1.75Q174.24-0.77 172.04-0.18 169.83 0.41 167.82 0.41L167.82 0.41Q161.76 0.41 158.21-3.08 154.67-6.58 154.67-12.64L154.67-12.64Q154.67-16.49 156.21-19.47 157.75-22.46 160.55-24.1 163.35-25.74 166.9-25.74L166.9-25.74Q170.29-25.74 172.81-24.25 175.32-22.76 176.71-20.04 178.1-17.32 178.1-13.62L178.1-13.62Q178.1-11.41 176.15-11.41L176.15-11.41 160.99-11.41Q161.3-7.86 162.99-6.19 164.69-4.52 167.92-4.52L167.92-4.52Q169.57-4.52 170.83-4.93 172.09-5.34 173.68-6.06L173.68-6.06Q175.22-6.89 175.94-6.89L175.94-6.89ZM167.05-21.22Q164.43-21.22 162.86-19.58 161.3-17.93 160.99-14.85L160.99-14.85 172.6-14.85Q172.5-17.98 171.06-19.6 169.62-21.22 167.05-21.22L167.05-21.22Z"
                            transform="translate(-3.3399999141693115, 36.47999954223633)"></path>
                    </g> <!----> <!----> <!----> <!----> <!----> <!----> <!---->
                </g>
            </g> <!---->
        </g>
    </g>
    <defs v-gra="od"></defs>
</svg>